# xmcd
#
# Track frame offsets: 
#        150
#        17237
#        35292
#        54135
#        70665
#        86345
#        107762
#        127197
#        141840
#        160895
#        177747
#        193617
#        209177
#        222787
#        239965
#        255380
#
# Disc length: 3592 seconds
#
# Revision: 3
# Processed by: cddbd v1.5.2PL0 Copyright (c) Steve Scherf et al.
# Submitted via: ExactAudioCopy v0.99pb4
#
DISCID=ef0e0610
DTITLE=Ann Rabson - Music Makin' Mama
DYEAR=1997
DGENRE=Blues
TTITLE0=Baby, Every Once In A While
TTITLE1=Givin' It Away
TTITLE2=No Later On
TTITLE3=One Meatball
TTITLE4=Snatchin' And Grabbin'
TTITLE5=Gonna Stop You From Giving Me The Blues
TTITLE6=He's Got Me Going
TTITLE7=Music Makin' Mama
TTITLE8=Another You
TTITLE9=What I Don't See Can't Hurt Me
TTITLE10=Serial Love
TTITLE11=Ain't That A Shame
TTITLE12=Hallelujah, I Just Love Him So
TTITLE13=Skin And Bones
TTITLE14=I Haven't Got A Clue
TTITLE15=Blue Boogie
EXTD=
EXTT0=
EXTT1=
EXTT2=
EXTT3=
EXTT4=
EXTT5=
EXTT6=
EXTT7=
EXTT8=
EXTT9=
EXTT10=
EXTT11=
EXTT12=
EXTT13=
EXTT14=
EXTT15=
PLAYORDER=
